<svg xmlns="http://www.w3.org/2000/svg" viewBox="0 0 1400 985">
  <defs><marker id="cmd" viewBox="0 0 10 7" refX="10" refY="3.5" markerWidth="8" markerHeight="6" orient="auto-start-reverse"><path d="M0,0 L10,3.5 L0,7 Z" fill="#2d3748"/></marker>
    <marker id="evt" viewBox="0 0 10 7" refX="10" refY="3.5" markerWidth="8" markerHeight="6" orient="auto-start-reverse"><path d="M0,0 L10,3.5 L0,7 Z" fill="#d69e2e"/></marker>
    <marker id="qry" viewBox="0 0 10 7" refX="10" refY="3.5" markerWidth="8" markerHeight="6" orient="auto-start-reverse"><path d="M0,0 L10,3.5 L0,7 Z" fill="#3182ce"/></marker>
    <marker id="lp" viewBox="0 0 10 7" refX="10" refY="3.5" markerWidth="8" markerHeight="6" orient="auto-start-reverse"><path d="M0,0 L10,3.5 L0,7 Z" fill="#805ad5"/></marker>
    <marker id="ai" viewBox="0 0 10 7" refX="10" refY="3.5" markerWidth="8" markerHeight="6" orient="auto-start-reverse"><path d="M0,0 L10,3.5 L0,7 Z" fill="#9f7aea"/></marker></defs>
  <rect width="1400" height="985" fill="#ffffff"/>
  <text x="700" y="38" text-anchor="middle" font-family="sans-serif" font-size="26" font-weight="bold" fill="#1a202c">Settlers.ts — System Architecture</text>
  <text x="700" y="60" text-anchor="middle" font-family="sans-serif" font-size="13" fill="#6b7280">Layered architecture with event-driven domain features</text>
  <g id="layer-7"><rect x="80" y="80" width="1240" height="65" rx="10" fill="none" stroke="#b794f4" stroke-width="1.5"/>
    <text x="100" y="97" text-anchor="start" font-family="sans-serif" font-size="10" font-weight="bold" fill="#9f7aea">LAYER 7 — PRESENTATION</text>
    <rect x="160" y="107" width="155" height="30" rx="5" fill="none" stroke="#b794f4" stroke-width="1"/>
    <text x="237.5" y="127" text-anchor="middle" font-family="sans-serif" font-size="10" fill="#553c9a">Vue Components</text>
    <rect x="330" y="107" width="145" height="30" rx="5" fill="none" stroke="#b794f4" stroke-width="1"/>
    <text x="402.5" y="127" text-anchor="middle" font-family="sans-serif" font-size="10" fill="#553c9a">Composables</text>
    <rect x="490" y="107" width="170" height="30" rx="5" fill="none" stroke="#b794f4" stroke-width="1"/>
    <text x="575" y="127" text-anchor="middle" font-family="sans-serif" font-size="10" fill="#553c9a">GameViewState</text>
    <rect x="675" y="107" width="145" height="30" rx="5" fill="none" stroke="#b794f4" stroke-width="1"/>
    <text x="747.5" y="127" text-anchor="middle" font-family="sans-serif" font-size="10" fill="#553c9a">Debug Panel</text></g>
  <g id="layer-6"><rect x="80" y="160" width="1240" height="90" rx="10" fill="none" stroke="#63b3ed" stroke-width="1.5"/>
    <text x="100" y="177" text-anchor="start" font-family="sans-serif" font-size="10" font-weight="bold" fill="#3182ce">LAYER 6 — I/O</text>
    <rect x="110" y="190" width="360" height="50" rx="8" fill="none" stroke="#63b3ed" stroke-width="1.5"/>
    <text x="290" y="209" text-anchor="middle" font-family="sans-serif" font-size="13" font-weight="bold" fill="#2a4365">InputManager</text>
    <text x="290" y="226" text-anchor="middle" font-family="sans-serif" font-size="9" fill="#4a5568">Select · PlaceBuilding · Camera · Adjust</text>
    <rect x="500" y="190" width="420" height="50" rx="8" fill="none" stroke="#63b3ed" stroke-width="1.5"/>
    <text x="710" y="209" text-anchor="middle" font-family="sans-serif" font-size="13" font-weight="bold" fill="#2a4365">Renderer (WebGL2)</text>
    <text x="710" y="226" text-anchor="middle" font-family="sans-serif" font-size="9" fill="#4a5568">Landscape · Entities · Overlays · SpriteCache</text>
    <rect x="950" y="190" width="160" height="50" rx="8" fill="none" stroke="#63b3ed" stroke-width="1.5"/>
    <text x="1030" y="216" text-anchor="middle" font-family="sans-serif" font-size="13" font-weight="bold" fill="#2a4365">Audio</text>
    <rect x="1140" y="190" width="150" height="50" rx="8" fill="none" stroke="#63b3ed" stroke-width="1.5" stroke-dasharray="4 3"/>
    <text x="1215" y="216" text-anchor="middle" font-family="sans-serif" font-size="13" font-weight="bold" fill="#6b7280">Lua Scripting</text></g>
  <g id="layer-5"><rect x="80" y="265" width="1240" height="90" rx="10" fill="none" stroke="#7f9cf5" stroke-width="1.5"/>
    <text x="100" y="282" text-anchor="start" font-family="sans-serif" font-size="10" font-weight="bold" fill="#5a67d8">LAYER 5 — ORCHESTRATION</text>
    <rect x="110" y="295" width="300" height="50" rx="8" fill="none" stroke="#7f9cf5" stroke-width="1.5"/>
    <text x="260" y="314" text-anchor="middle" font-family="sans-serif" font-size="13" font-weight="bold" fill="#3c366b">GameLoop (30 Hz)</text>
    <text x="260" y="331" text-anchor="middle" font-family="sans-serif" font-size="9" fill="#4a5568">Logic → Anim → Update → Render</text>
    <rect x="440" y="295" width="320" height="50" rx="8" fill="none" stroke="#7f9cf5" stroke-width="1.5"/>
    <text x="600" y="314" text-anchor="middle" font-family="sans-serif" font-size="13" font-weight="bold" fill="#3c366b">Command Pipeline</text>
    <text x="600" y="331" text-anchor="middle" font-family="sans-serif" font-size="9" fill="#4a5568">Registry · Handlers · DI</text>
    <rect x="790" y="295" width="240" height="50" rx="8" fill="none" stroke="#7f9cf5" stroke-width="1.5"/>
    <text x="910" y="314" text-anchor="middle" font-family="sans-serif" font-size="13" font-weight="bold" fill="#3c366b">GameServices</text>
    <text x="910" y="331" text-anchor="middle" font-family="sans-serif" font-size="9" fill="#4a5568">Composition Root</text>
    <rect x="1060" y="295" width="230" height="50" rx="8" fill="none" stroke="#7f9cf5" stroke-width="1.5"/>
    <text x="1175" y="314" text-anchor="middle" font-family="sans-serif" font-size="13" font-weight="bold" fill="#3c366b">Persistence</text>
    <text x="1175" y="331" text-anchor="middle" font-family="sans-serif" font-size="9" fill="#4a5568">Snapshots · Command Journal</text></g>
  <g id="layer-4"><rect x="80" y="370" width="1240" height="270" rx="10" fill="none" stroke="#9ca3af" stroke-width="1.5"/>
    <text x="100" y="387" text-anchor="start" font-family="sans-serif" font-size="10" font-weight="bold" fill="#4b5563">LAYER 4 — DOMAIN FEATURES (23 modules)</text>
    <rect x="100" y="398" width="295" height="225" rx="8" fill="none" stroke="#68d391" stroke-width="1.5"/>
    <text x="247.5" y="414" text-anchor="middle" font-family="sans-serif" font-size="11" font-weight="bold" fill="#276749">ECONOMY</text>
    <rect x="115" y="424" width="125" height="26" rx="5" fill="none" stroke="#9ae6b4" stroke-width="1"/>
    <text x="177.5" y="441" text-anchor="middle" font-family="sans-serif" font-size="10" fill="#276749">Logistics</text>
    <rect x="250" y="424" width="125" height="26" rx="5" fill="none" stroke="#9ae6b4" stroke-width="1"/>
    <text x="312.5" y="441" text-anchor="middle" font-family="sans-serif" font-size="10" fill="#276749">Carriers</text>
    <rect x="115" y="456" width="125" height="26" rx="5" fill="none" stroke="#9ae6b4" stroke-width="1"/>
    <text x="177.5" y="473" text-anchor="middle" font-family="sans-serif" font-size="10" fill="#276749">Inventory</text>
    <rect x="250" y="456" width="125" height="26" rx="5" fill="none" stroke="#9ae6b4" stroke-width="1"/>
    <text x="312.5" y="473" text-anchor="middle" font-family="sans-serif" font-size="10" fill="#276749">Production</text>
    <rect x="115" y="488" width="125" height="26" rx="5" fill="none" stroke="#9ae6b4" stroke-width="1"/>
    <text x="177.5" y="505" text-anchor="middle" font-family="sans-serif" font-size="10" fill="#276749">Material Req</text>
    <rect x="250" y="488" width="125" height="26" rx="5" fill="none" stroke="#9ae6b4" stroke-width="1"/>
    <text x="312.5" y="505" text-anchor="middle" font-family="sans-serif" font-size="10" fill="#276749">Mat Transfer</text>
    <text x="120" y="536" text-anchor="start" font-family="sans-serif" font-size="9" font-style="italic" fill="#68d391">Demand → Match → Dispatch → Deliver</text>
    <rect x="115" y="548" width="265" height="24" rx="5" fill="none" stroke="#9ae6b4" stroke-width="1"/>
    <text x="247.5" y="564" text-anchor="middle" font-family="sans-serif" font-size="10" fill="#276749">Work Areas</text>
    <rect x="115" y="578" width="265" height="24" rx="5" fill="none" stroke="#9ae6b4" stroke-width="1"/>
    <text x="247.5" y="594" text-anchor="middle" font-family="sans-serif" font-size="10" fill="#276749">Building Demand · Overlays</text>
    <rect x="410" y="398" width="250" height="225" rx="8" fill="none" stroke="#63b3ed" stroke-width="1.5"/>
    <text x="535" y="414" text-anchor="middle" font-family="sans-serif" font-size="11" font-weight="bold" fill="#2a4365">SETTLERS</text>
    <rect x="425" y="424" width="220" height="26" rx="5" fill="none" stroke="#90cdf4" stroke-width="1"/>
    <text x="535" y="441" text-anchor="middle" font-family="sans-serif" font-size="10" fill="#2a4365">Settler Tasks</text>
    <rect x="425" y="456" width="220" height="26" rx="5" fill="none" stroke="#90cdf4" stroke-width="1"/>
    <text x="535" y="473" text-anchor="middle" font-family="sans-serif" font-size="10" fill="#2a4365">Building Construction</text>
    <rect x="425" y="488" width="220" height="26" rx="5" fill="none" stroke="#90cdf4" stroke-width="1"/>
    <text x="535" y="505" text-anchor="middle" font-family="sans-serif" font-size="10" fill="#2a4365">Recruit / Transform</text>
    <rect x="425" y="520" width="220" height="26" rx="5" fill="none" stroke="#90cdf4" stroke-width="1"/>
    <text x="535" y="537" text-anchor="middle" font-family="sans-serif" font-size="10" fill="#2a4365">Settler Location</text>
    <text x="430" y="566" text-anchor="start" font-family="sans-serif" font-size="9" font-style="italic" fill="#63b3ed">Recruit → Task → Navigate → Work</text>
    <rect x="425" y="578" width="220" height="24" rx="5" fill="none" stroke="#90cdf4" stroke-width="1"/>
    <text x="535" y="594" text-anchor="middle" font-family="sans-serif" font-size="10" fill="#2a4365">Settler Lifecycle</text>
    <rect x="675" y="398" width="250" height="225" rx="8" fill="none" stroke="#ecc94b" stroke-width="1.5"/>
    <text x="800" y="414" text-anchor="middle" font-family="sans-serif" font-size="11" font-weight="bold" fill="#744210">WORLD</text>
    <rect x="690" y="424" width="105" height="26" rx="5" fill="none" stroke="#f6e05e" stroke-width="1"/>
    <text x="742.5" y="441" text-anchor="middle" font-family="sans-serif" font-size="10" fill="#744210">Trees</text>
    <rect x="805" y="424" width="105" height="26" rx="5" fill="none" stroke="#f6e05e" stroke-width="1"/>
    <text x="857.5" y="441" text-anchor="middle" font-family="sans-serif" font-size="10" fill="#744210">Stones</text>
    <rect x="690" y="456" width="105" height="26" rx="5" fill="none" stroke="#f6e05e" stroke-width="1"/>
    <text x="742.5" y="473" text-anchor="middle" font-family="sans-serif" font-size="10" fill="#744210">Crops</text>
    <rect x="805" y="456" width="105" height="26" rx="5" fill="none" stroke="#f6e05e" stroke-width="1"/>
    <text x="857.5" y="473" text-anchor="middle" font-family="sans-serif" font-size="10" fill="#744210">Ore Veins</text>
    <rect x="690" y="494" width="220" height="26" rx="5" fill="none" stroke="#f6e05e" stroke-width="1"/>
    <text x="800" y="511" text-anchor="middle" font-family="sans-serif" font-size="10" fill="#744210">Territory</text>
    <text x="695" y="538" text-anchor="start" font-family="sans-serif" font-size="9" font-style="italic" fill="#d69e2e">Growth · Depletion · Influence</text>
    <rect x="940" y="398" width="250" height="155" rx="8" fill="none" stroke="#fc8181" stroke-width="1.5"/>
    <text x="1065" y="414" text-anchor="middle" font-family="sans-serif" font-size="11" font-weight="bold" fill="#9b2c2c">MILITARY</text>
    <rect x="955" y="424" width="105" height="26" rx="5" fill="none" stroke="#feb2b2" stroke-width="1"/>
    <text x="1007.5" y="441" text-anchor="middle" font-family="sans-serif" font-size="10" fill="#9b2c2c">Combat</text>
    <rect x="1070" y="424" width="105" height="26" rx="5" fill="none" stroke="#feb2b2" stroke-width="1"/>
    <text x="1122.5" y="441" text-anchor="middle" font-family="sans-serif" font-size="10" fill="#9b2c2c">Garrison</text>
    <rect x="955" y="456" width="105" height="26" rx="5" fill="none" stroke="#feb2b2" stroke-width="1"/>
    <text x="1007.5" y="473" text-anchor="middle" font-family="sans-serif" font-size="10" fill="#9b2c2c">Siege</text>
    <rect x="1070" y="456" width="105" height="26" rx="5" fill="none" stroke="#feb2b2" stroke-width="1"/>
    <text x="1122.5" y="473" text-anchor="middle" font-family="sans-serif" font-size="10" fill="#9b2c2c">Barracks</text>
    <rect x="955" y="494" width="220" height="26" rx="5" fill="none" stroke="#feb2b2" stroke-width="1"/>
    <text x="1065" y="511" text-anchor="middle" font-family="sans-serif" font-size="10" fill="#9b2c2c">Victory Conditions</text>
    <rect x="940" y="563" width="250" height="55" rx="8" fill="none" stroke="#d6bcfa" stroke-width="1.5"/>
    <text x="1065" y="580" text-anchor="middle" font-family="sans-serif" font-size="11" font-weight="bold" fill="#6b46c1">AI PLAYER</text>
    <text x="1065" y="597" text-anchor="middle" font-family="sans-serif" font-size="9" fill="#9f7aea">Behavior Tree · Economy · Military</text>
    <text x="1065" y="610" text-anchor="middle" font-family="sans-serif" font-size="9" font-style="italic" fill="#b794f4">Issues commands like a human player</text></g>
  <g id="layer-3"><rect x="80" y="655" width="1240" height="80" rx="10" fill="none" stroke="#f6ad55" stroke-width="1.5"/>
    <text x="100" y="672" text-anchor="start" font-family="sans-serif" font-size="10" font-weight="bold" fill="#975a16">LAYER 3 — CORE STATE</text>
    <rect x="110" y="680" width="520" height="45" rx="8" fill="none" stroke="#f6ad55" stroke-width="1.5"/>
    <text x="370" y="697" text-anchor="middle" font-family="sans-serif" font-size="13" font-weight="bold" fill="#744210">GameState</text>
    <text x="370" y="712" text-anchor="middle" font-family="sans-serif" font-size="9" fill="#975a16">Entity Store · Occupancy Maps · Spatial Index</text>
    <rect x="660" y="680" width="420" height="45" rx="8" fill="none" stroke="#f6ad55" stroke-width="1.5"/>
    <text x="870" y="697" text-anchor="middle" font-family="sans-serif" font-size="13" font-weight="bold" fill="#744210">EventBus</text>
    <text x="870" y="712" text-anchor="middle" font-family="sans-serif" font-size="9" fill="#975a16">entity:created · building:placed · unit:died · ...</text>
    <rect x="1110" y="680" width="180" height="45" rx="8" fill="none" stroke="#f6ad55" stroke-width="1.5"/>
    <text x="1200" y="703" text-anchor="middle" font-family="sans-serif" font-size="13" font-weight="bold" fill="#744210">Settings</text></g>
  <g id="layer-2"><rect x="80" y="750" width="1240" height="70" rx="10" fill="none" stroke="#a0aec0" stroke-width="1.5"/>
    <text x="100" y="767" text-anchor="start" font-family="sans-serif" font-size="10" font-weight="bold" fill="#4a5568">LAYER 2 — INFRASTRUCTURE (never imports features)</text>
    <rect x="110" y="777" width="170" height="32" rx="5" fill="none" stroke="#a0aec0" stroke-width="1"/>
    <text x="195" y="798" text-anchor="middle" font-family="sans-serif" font-size="10" fill="#2d3748">Movement</text>
    <rect x="300" y="777" width="170" height="32" rx="5" fill="none" stroke="#a0aec0" stroke-width="1"/>
    <text x="385" y="798" text-anchor="middle" font-family="sans-serif" font-size="10" fill="#2d3748">Pathfinding</text>
    <rect x="490" y="777" width="170" height="32" rx="5" fill="none" stroke="#a0aec0" stroke-width="1"/>
    <text x="575" y="798" text-anchor="middle" font-family="sans-serif" font-size="10" fill="#2d3748">Placement</text>
    <rect x="680" y="777" width="170" height="32" rx="5" fill="none" stroke="#a0aec0" stroke-width="1"/>
    <text x="765" y="798" text-anchor="middle" font-family="sans-serif" font-size="10" fill="#2d3748">Spatial Search</text>
    <rect x="870" y="777" width="170" height="32" rx="5" fill="none" stroke="#a0aec0" stroke-width="1"/>
    <text x="955" y="798" text-anchor="middle" font-family="sans-serif" font-size="10" fill="#2d3748">Choreography</text>
    <rect x="1060" y="777" width="170" height="32" rx="5" fill="none" stroke="#a0aec0" stroke-width="1"/>
    <text x="1145" y="798" text-anchor="middle" font-family="sans-serif" font-size="10" fill="#2d3748">Coord System</text></g>
  <g id="layer-01"><rect x="80" y="835" width="1240" height="60" rx="10" fill="none" stroke="#cbd5e0" stroke-width="1.5"/>
    <text x="100" y="852" text-anchor="start" font-family="sans-serif" font-size="10" font-weight="bold" fill="#718096">LAYERS 0–1 — PURE DATA &amp; ALGORITHMS</text>
    <rect x="110" y="862" width="130" height="22" rx="5" fill="none" stroke="#cbd5e0" stroke-width="1"/>
    <text x="175" y="876" text-anchor="middle" font-family="sans-serif" font-size="10" fill="#4a5568">A* Algorithm</text>
    <rect x="253" y="862" width="130" height="22" rx="5" fill="none" stroke="#cbd5e0" stroke-width="1"/>
    <text x="318" y="876" text-anchor="middle" font-family="sans-serif" font-size="10" fill="#4a5568">Seeded RNG</text>
    <rect x="396" y="862" width="130" height="22" rx="5" fill="none" stroke="#cbd5e0" stroke-width="1"/>
    <text x="461" y="876" text-anchor="middle" font-family="sans-serif" font-size="10" fill="#4a5568">Building Types</text>
    <rect x="539" y="862" width="130" height="22" rx="5" fill="none" stroke="#cbd5e0" stroke-width="1"/>
    <text x="604" y="876" text-anchor="middle" font-family="sans-serif" font-size="10" fill="#4a5568">Unit Types</text>
    <rect x="682" y="862" width="130" height="22" rx="5" fill="none" stroke="#cbd5e0" stroke-width="1"/>
    <text x="747" y="876" text-anchor="middle" font-family="sans-serif" font-size="10" fill="#4a5568">Materials</text>
    <rect x="825" y="862" width="130" height="22" rx="5" fill="none" stroke="#cbd5e0" stroke-width="1"/>
    <text x="890" y="876" text-anchor="middle" font-family="sans-serif" font-size="10" fill="#4a5568">Recipes</text>
    <rect x="968" y="862" width="130" height="22" rx="5" fill="none" stroke="#cbd5e0" stroke-width="1"/>
    <text x="1033" y="876" text-anchor="middle" font-family="sans-serif" font-size="10" fill="#4a5568">Footprints</text>
    <rect x="1111" y="862" width="130" height="22" rx="5" fill="none" stroke="#cbd5e0" stroke-width="1"/>
    <text x="1176" y="876" text-anchor="middle" font-family="sans-serif" font-size="10" fill="#4a5568">Behavior Tree</text></g>
  <g id="arrows"><line x1="400" y1="137" x2="290" y2="188" stroke="#2d3748" stroke-width="1.5" marker-end="url(#cmd)"/>
    <line x1="290" y1="240" x2="530" y2="293" stroke="#2d3748" stroke-width="1.5" marker-end="url(#cmd)"/>
    <text x="310" y="254" text-anchor="start" font-family="sans-serif" font-size="9" fill="#6b7280">execute(cmd)</text>
    <path d="M440,345 L93,406 L93,702 L110,702" fill="none" stroke="#2d3748" stroke-width="1.5" marker-end="url(#cmd)"/>
    <text x="90" y="515" text-anchor="end" font-family="sans-serif" font-size="9" fill="#6b7280">mutate state</text>
    <line x1="770" y1="680" x2="247.5" y2="625" stroke="#d69e2e" stroke-width="1.5" stroke-dasharray="6 3" marker-end="url(#evt)"/>
    <line x1="800" y1="680" x2="535" y2="625" stroke="#d69e2e" stroke-width="1.5" stroke-dasharray="6 3" marker-end="url(#evt)"/>
    <line x1="840" y1="680" x2="800" y2="625" stroke="#d69e2e" stroke-width="1.5" stroke-dasharray="6 3" marker-end="url(#evt)"/>
    <line x1="870" y1="680" x2="1065" y2="625" stroke="#d69e2e" stroke-width="1.5" stroke-dasharray="6 3" marker-end="url(#evt)"/>
    <text x="1310" y="648" text-anchor="end" font-family="sans-serif" font-size="9" font-weight="bold" fill="#d69e2e">Events (pub/sub)</text>
    <line x1="668" y1="240" x2="668" y2="680" stroke="#3182ce" stroke-width="1.5" stroke-dasharray="4 4" marker-start="url(#qry)"/>
    <text x="676" y="254" text-anchor="start" font-family="sans-serif" font-size="9" fill="#3182ce">queries via RenderContext</text>
    <path d="M940,590 Q800,590 600,345" fill="none" stroke="#9f7aea" stroke-width="1.5" stroke-dasharray="5 3" marker-end="url(#ai)"/>
    <text x="1198" y="593" text-anchor="start" font-family="sans-serif" font-size="9" fill="#9f7aea">execute(cmd)</text>
    <path d="M1325,295 L1340,295 L1340,820 L1325,820" fill="none" stroke="#805ad5" stroke-width="1.5"/>
    <line x1="1325" y1="505" x2="1200" y2="505" stroke="#805ad5" stroke-width="1" stroke-dasharray="6 3" marker-end="url(#lp)"/>
    <line x1="1325" y1="702" x2="1295" y2="702" stroke="#805ad5" stroke-width="1" stroke-dasharray="6 3" marker-end="url(#lp)"/>
    <line x1="1325" y1="793" x2="1240" y2="793" stroke="#805ad5" stroke-width="1" stroke-dasharray="6 3" marker-end="url(#lp)"/>
    <text x="1348" y="557.5" text-anchor="middle" font-family="sans-serif" font-size="10" font-weight="bold" fill="#805ad5" transform="rotate(90, 1348, 557.5)">GameLoop ticks all systems (30 Hz)</text></g>
  <g id="legend"><rect x="80" y="915" width="1240" height="55" rx="8" fill="none" stroke="#d1d5db" stroke-width="1"/>
    <text x="100" y="931" text-anchor="start" font-family="sans-serif" font-size="11" font-weight="bold" fill="#1f2937">Legend</text>
    <line x1="100" y1="948" x2="140" y2="948" stroke="#2d3748" stroke-width="1.5" marker-end="url(#cmd)"/>
    <text x="150" y="952" text-anchor="start" font-family="sans-serif" font-size="10" fill="#4b5563">Direct call</text>
    <line x1="290" y1="948" x2="330" y2="948" stroke="#d69e2e" stroke-width="1.5" stroke-dasharray="6 3" marker-end="url(#evt)"/>
    <text x="340" y="952" text-anchor="start" font-family="sans-serif" font-size="10" fill="#4b5563">Event reaction</text>
    <line x1="500" y1="948" x2="540" y2="948" stroke="#3182ce" stroke-width="1.5" stroke-dasharray="6 3" marker-end="url(#qry)"/>
    <text x="550" y="952" text-anchor="start" font-family="sans-serif" font-size="10" fill="#4b5563">Read-only query</text>
    <rect x="720" y="941" width="12" height="12" rx="2" fill="none" stroke="#9ae6b4" stroke-width="1"/>
    <text x="738" y="952" text-anchor="start" font-family="sans-serif" font-size="9" fill="#4b5563">Economy</text>
    <rect x="800" y="941" width="12" height="12" rx="2" fill="none" stroke="#90cdf4" stroke-width="1"/>
    <text x="818" y="952" text-anchor="start" font-family="sans-serif" font-size="9" fill="#4b5563">Settlers</text>
    <rect x="880" y="941" width="12" height="12" rx="2" fill="none" stroke="#f6e05e" stroke-width="1"/>
    <text x="898" y="952" text-anchor="start" font-family="sans-serif" font-size="9" fill="#4b5563">World</text>
    <rect x="950" y="941" width="12" height="12" rx="2" fill="none" stroke="#feb2b2" stroke-width="1"/>
    <text x="968" y="952" text-anchor="start" font-family="sans-serif" font-size="9" fill="#4b5563">Military</text>
    <rect x="1030" y="941" width="12" height="12" rx="2" fill="none" stroke="#d6bcfa" stroke-width="1"/>
    <text x="1048" y="952" text-anchor="start" font-family="sans-serif" font-size="9" fill="#4b5563">AI</text>
    <text x="100" y="965" text-anchor="start" font-family="sans-serif" font-size="9" fill="#9ca3af">Infra never imports features. Features communicate via EventBus. Deterministic: seeded RNG, fixed-point math.</text></g>
</svg>