<svg xmlns="http://www.w3.org/2000/svg" viewBox="0 0 1400 985">
  <defs><marker id="cmd" viewBox="0 0 10 7" refX="10" refY="3.5" markerWidth="8" markerHeight="6" orient="auto-start-reverse"><path d="M0,0 L10,3.5 L0,7 Z" fill="#1a365d"/></marker>
    <marker id="evt" viewBox="0 0 10 7" refX="10" refY="3.5" markerWidth="8" markerHeight="6" orient="auto-start-reverse"><path d="M0,0 L10,3.5 L0,7 Z" fill="#4299e1"/></marker>
    <marker id="qry" viewBox="0 0 10 7" refX="10" refY="3.5" markerWidth="8" markerHeight="6" orient="auto-start-reverse"><path d="M0,0 L10,3.5 L0,7 Z" fill="#2b6cb0"/></marker>
    <marker id="lp" viewBox="0 0 10 7" refX="10" refY="3.5" markerWidth="8" markerHeight="6" orient="auto-start-reverse"><path d="M0,0 L10,3.5 L0,7 Z" fill="#63b3ed"/></marker>
    <marker id="ai" viewBox="0 0 10 7" refX="10" refY="3.5" markerWidth="8" markerHeight="6" orient="auto-start-reverse"><path d="M0,0 L10,3.5 L0,7 Z" fill="#4299e1"/></marker></defs>
  <rect width="1400" height="985" fill="#ffffff"/>
  <text x="700" y="38" text-anchor="middle" font-family="sans-serif" font-size="26" font-weight="bold" fill="#1a365d">Settlers.ts — System Architecture</text>
  <text x="700" y="60" text-anchor="middle" font-family="sans-serif" font-size="13" fill="#4a5568">Layered architecture with event-driven domain features</text>
  <g id="layer-7"><rect x="80" y="80" width="1240" height="65" rx="10" fill="#1a365d" stroke="#1a365d" stroke-width="1.5"/>
    <text x="100" y="97" text-anchor="start" font-family="sans-serif" font-size="10" font-weight="bold" fill="#ffffff">LAYER 7 — PRESENTATION</text>
    <rect x="160" y="107" width="155" height="30" rx="5" fill="#2a4365" stroke="#2a4365" stroke-width="1"/>
    <text x="237.5" y="127" text-anchor="middle" font-family="sans-serif" font-size="10" fill="#bee3f8">Vue Components</text>
    <rect x="330" y="107" width="145" height="30" rx="5" fill="#2a4365" stroke="#2a4365" stroke-width="1"/>
    <text x="402.5" y="127" text-anchor="middle" font-family="sans-serif" font-size="10" fill="#bee3f8">Composables</text>
    <rect x="490" y="107" width="170" height="30" rx="5" fill="#2a4365" stroke="#2a4365" stroke-width="1"/>
    <text x="575" y="127" text-anchor="middle" font-family="sans-serif" font-size="10" fill="#bee3f8">GameViewState</text>
    <rect x="675" y="107" width="145" height="30" rx="5" fill="#2a4365" stroke="#2a4365" stroke-width="1"/>
    <text x="747.5" y="127" text-anchor="middle" font-family="sans-serif" font-size="10" fill="#bee3f8">Debug Panel</text></g>
  <g id="layer-6"><rect x="80" y="160" width="1240" height="90" rx="10" fill="#2a4365" stroke="#2a4365" stroke-width="1.5"/>
    <text x="100" y="177" text-anchor="start" font-family="sans-serif" font-size="10" font-weight="bold" fill="#bee3f8">LAYER 6 — I/O</text>
    <rect x="110" y="190" width="360" height="50" rx="8" fill="#2b6cb0" stroke="#2b6cb0" stroke-width="1.5"/>
    <text x="290" y="209" text-anchor="middle" font-family="sans-serif" font-size="13" font-weight="bold" fill="#ffffff">InputManager</text>
    <text x="290" y="226" text-anchor="middle" font-family="sans-serif" font-size="9" fill="#bee3f8">Select · PlaceBuilding · Camera · Adjust</text>
    <rect x="500" y="190" width="420" height="50" rx="8" fill="#2b6cb0" stroke="#2b6cb0" stroke-width="1.5"/>
    <text x="710" y="209" text-anchor="middle" font-family="sans-serif" font-size="13" font-weight="bold" fill="#ffffff">Renderer (WebGL2)</text>
    <text x="710" y="226" text-anchor="middle" font-family="sans-serif" font-size="9" fill="#bee3f8">Landscape · Entities · Overlays · SpriteCache</text>
    <rect x="950" y="190" width="160" height="50" rx="8" fill="#2b6cb0" stroke="#2b6cb0" stroke-width="1.5"/>
    <text x="1030" y="216" text-anchor="middle" font-family="sans-serif" font-size="13" font-weight="bold" fill="#ffffff">Audio</text>
    <rect x="1140" y="190" width="150" height="50" rx="8" fill="#2b6cb0" stroke="#2b6cb0" stroke-width="1.5" stroke-dasharray="4 3"/>
    <text x="1215" y="216" text-anchor="middle" font-family="sans-serif" font-size="13" font-weight="bold" fill="#bee3f8">Lua Scripting</text></g>
  <g id="layer-5"><rect x="80" y="265" width="1240" height="90" rx="10" fill="#2b6cb0" stroke="#2b6cb0" stroke-width="1.5"/>
    <text x="100" y="282" text-anchor="start" font-family="sans-serif" font-size="10" font-weight="bold" fill="#ffffff">LAYER 5 — ORCHESTRATION</text>
    <rect x="110" y="295" width="300" height="50" rx="8" fill="#4299e1" stroke="#4299e1" stroke-width="1.5"/>
    <text x="260" y="314" text-anchor="middle" font-family="sans-serif" font-size="13" font-weight="bold" fill="#ffffff">GameLoop (30 Hz)</text>
    <text x="260" y="331" text-anchor="middle" font-family="sans-serif" font-size="9" fill="#bee3f8">Logic → Anim → Update → Render</text>
    <rect x="440" y="295" width="320" height="50" rx="8" fill="#4299e1" stroke="#4299e1" stroke-width="1.5"/>
    <text x="600" y="314" text-anchor="middle" font-family="sans-serif" font-size="13" font-weight="bold" fill="#ffffff">Command Pipeline</text>
    <text x="600" y="331" text-anchor="middle" font-family="sans-serif" font-size="9" fill="#bee3f8">Registry · Handlers · DI</text>
    <rect x="790" y="295" width="240" height="50" rx="8" fill="#4299e1" stroke="#4299e1" stroke-width="1.5"/>
    <text x="910" y="314" text-anchor="middle" font-family="sans-serif" font-size="13" font-weight="bold" fill="#ffffff">GameServices</text>
    <text x="910" y="331" text-anchor="middle" font-family="sans-serif" font-size="9" fill="#bee3f8">Composition Root</text>
    <rect x="1060" y="295" width="230" height="50" rx="8" fill="#4299e1" stroke="#4299e1" stroke-width="1.5"/>
    <text x="1175" y="314" text-anchor="middle" font-family="sans-serif" font-size="13" font-weight="bold" fill="#ffffff">Persistence</text>
    <text x="1175" y="331" text-anchor="middle" font-family="sans-serif" font-size="9" fill="#bee3f8">Snapshots · Command Journal</text></g>
  <g id="layer-4"><rect x="80" y="370" width="1240" height="270" rx="10" fill="#f7fafc" stroke="#a0aec0" stroke-width="1.5"/>
    <text x="100" y="387" text-anchor="start" font-family="sans-serif" font-size="10" font-weight="bold" fill="#2d3748">LAYER 4 — DOMAIN FEATURES (23 modules)</text>
    <rect x="100" y="398" width="295" height="225" rx="8" fill="#ebf8ff" stroke="#4299e1" stroke-width="1.5"/>
    <text x="247.5" y="414" text-anchor="middle" font-family="sans-serif" font-size="11" font-weight="bold" fill="#1a365d">ECONOMY</text>
    <rect x="115" y="424" width="125" height="26" rx="5" fill="#bee3f8" stroke="#63b3ed" stroke-width="1"/>
    <text x="177.5" y="441" text-anchor="middle" font-family="sans-serif" font-size="10" fill="#1a365d">Logistics</text>
    <rect x="250" y="424" width="125" height="26" rx="5" fill="#bee3f8" stroke="#63b3ed" stroke-width="1"/>
    <text x="312.5" y="441" text-anchor="middle" font-family="sans-serif" font-size="10" fill="#1a365d">Carriers</text>
    <rect x="115" y="456" width="125" height="26" rx="5" fill="#bee3f8" stroke="#63b3ed" stroke-width="1"/>
    <text x="177.5" y="473" text-anchor="middle" font-family="sans-serif" font-size="10" fill="#1a365d">Inventory</text>
    <rect x="250" y="456" width="125" height="26" rx="5" fill="#bee3f8" stroke="#63b3ed" stroke-width="1"/>
    <text x="312.5" y="473" text-anchor="middle" font-family="sans-serif" font-size="10" fill="#1a365d">Production</text>
    <rect x="115" y="488" width="125" height="26" rx="5" fill="#bee3f8" stroke="#63b3ed" stroke-width="1"/>
    <text x="177.5" y="505" text-anchor="middle" font-family="sans-serif" font-size="10" fill="#1a365d">Material Req</text>
    <rect x="250" y="488" width="125" height="26" rx="5" fill="#bee3f8" stroke="#63b3ed" stroke-width="1"/>
    <text x="312.5" y="505" text-anchor="middle" font-family="sans-serif" font-size="10" fill="#1a365d">Mat Transfer</text>
    <text x="120" y="536" text-anchor="start" font-family="sans-serif" font-size="9" font-style="italic" fill="#4299e1">Demand → Match → Dispatch → Deliver</text>
    <rect x="115" y="548" width="265" height="24" rx="5" fill="#bee3f8" stroke="#63b3ed" stroke-width="1"/>
    <text x="247.5" y="564" text-anchor="middle" font-family="sans-serif" font-size="10" fill="#1a365d">Work Areas</text>
    <rect x="115" y="578" width="265" height="24" rx="5" fill="#bee3f8" stroke="#63b3ed" stroke-width="1"/>
    <text x="247.5" y="594" text-anchor="middle" font-family="sans-serif" font-size="10" fill="#1a365d">Building Demand · Overlays</text>
    <rect x="410" y="398" width="250" height="225" rx="8" fill="#ebf8ff" stroke="#4299e1" stroke-width="1.5"/>
    <text x="535" y="414" text-anchor="middle" font-family="sans-serif" font-size="11" font-weight="bold" fill="#1a365d">SETTLERS</text>
    <rect x="425" y="424" width="220" height="26" rx="5" fill="#90cdf4" stroke="#63b3ed" stroke-width="1"/>
    <text x="535" y="441" text-anchor="middle" font-family="sans-serif" font-size="10" fill="#1a365d">Settler Tasks</text>
    <rect x="425" y="456" width="220" height="26" rx="5" fill="#90cdf4" stroke="#63b3ed" stroke-width="1"/>
    <text x="535" y="473" text-anchor="middle" font-family="sans-serif" font-size="10" fill="#1a365d">Building Construction</text>
    <rect x="425" y="488" width="220" height="26" rx="5" fill="#90cdf4" stroke="#63b3ed" stroke-width="1"/>
    <text x="535" y="505" text-anchor="middle" font-family="sans-serif" font-size="10" fill="#1a365d">Recruit / Transform</text>
    <rect x="425" y="520" width="220" height="26" rx="5" fill="#90cdf4" stroke="#63b3ed" stroke-width="1"/>
    <text x="535" y="537" text-anchor="middle" font-family="sans-serif" font-size="10" fill="#1a365d">Settler Location</text>
    <text x="430" y="566" text-anchor="start" font-family="sans-serif" font-size="9" font-style="italic" fill="#63b3ed">Recruit → Task → Navigate → Work</text>
    <rect x="425" y="578" width="220" height="24" rx="5" fill="#90cdf4" stroke="#63b3ed" stroke-width="1"/>
    <text x="535" y="594" text-anchor="middle" font-family="sans-serif" font-size="10" fill="#1a365d">Settler Lifecycle</text>
    <rect x="675" y="398" width="250" height="225" rx="8" fill="#ebf8ff" stroke="#4299e1" stroke-width="1.5"/>
    <text x="800" y="414" text-anchor="middle" font-family="sans-serif" font-size="11" font-weight="bold" fill="#1a365d">WORLD</text>
    <rect x="690" y="424" width="105" height="26" rx="5" fill="#63b3ed" stroke="#4299e1" stroke-width="1"/>
    <text x="742.5" y="441" text-anchor="middle" font-family="sans-serif" font-size="10" fill="#ffffff">Trees</text>
    <rect x="805" y="424" width="105" height="26" rx="5" fill="#63b3ed" stroke="#4299e1" stroke-width="1"/>
    <text x="857.5" y="441" text-anchor="middle" font-family="sans-serif" font-size="10" fill="#ffffff">Stones</text>
    <rect x="690" y="456" width="105" height="26" rx="5" fill="#63b3ed" stroke="#4299e1" stroke-width="1"/>
    <text x="742.5" y="473" text-anchor="middle" font-family="sans-serif" font-size="10" fill="#ffffff">Crops</text>
    <rect x="805" y="456" width="105" height="26" rx="5" fill="#63b3ed" stroke="#4299e1" stroke-width="1"/>
    <text x="857.5" y="473" text-anchor="middle" font-family="sans-serif" font-size="10" fill="#ffffff">Ore Veins</text>
    <rect x="690" y="494" width="220" height="26" rx="5" fill="#63b3ed" stroke="#4299e1" stroke-width="1"/>
    <text x="800" y="511" text-anchor="middle" font-family="sans-serif" font-size="10" fill="#ffffff">Territory</text>
    <text x="695" y="538" text-anchor="start" font-family="sans-serif" font-size="9" font-style="italic" fill="#4299e1">Growth · Depletion · Influence</text>
    <rect x="940" y="398" width="250" height="155" rx="8" fill="#ebf8ff" stroke="#4299e1" stroke-width="1.5"/>
    <text x="1065" y="414" text-anchor="middle" font-family="sans-serif" font-size="11" font-weight="bold" fill="#1a365d">MILITARY</text>
    <rect x="955" y="424" width="105" height="26" rx="5" fill="#4299e1" stroke="#2b6cb0" stroke-width="1"/>
    <text x="1007.5" y="441" text-anchor="middle" font-family="sans-serif" font-size="10" fill="#ffffff">Combat</text>
    <rect x="1070" y="424" width="105" height="26" rx="5" fill="#4299e1" stroke="#2b6cb0" stroke-width="1"/>
    <text x="1122.5" y="441" text-anchor="middle" font-family="sans-serif" font-size="10" fill="#ffffff">Garrison</text>
    <rect x="955" y="456" width="105" height="26" rx="5" fill="#4299e1" stroke="#2b6cb0" stroke-width="1"/>
    <text x="1007.5" y="473" text-anchor="middle" font-family="sans-serif" font-size="10" fill="#ffffff">Siege</text>
    <rect x="1070" y="456" width="105" height="26" rx="5" fill="#4299e1" stroke="#2b6cb0" stroke-width="1"/>
    <text x="1122.5" y="473" text-anchor="middle" font-family="sans-serif" font-size="10" fill="#ffffff">Barracks</text>
    <rect x="955" y="494" width="220" height="26" rx="5" fill="#4299e1" stroke="#2b6cb0" stroke-width="1"/>
    <text x="1065" y="511" text-anchor="middle" font-family="sans-serif" font-size="10" fill="#ffffff">Victory Conditions</text>
    <rect x="940" y="563" width="250" height="55" rx="8" fill="#ebf8ff" stroke="#63b3ed" stroke-width="1.5"/>
    <text x="1065" y="580" text-anchor="middle" font-family="sans-serif" font-size="11" font-weight="bold" fill="#1a365d">AI PLAYER</text>
    <text x="1065" y="597" text-anchor="middle" font-family="sans-serif" font-size="9" fill="#2b6cb0">Behavior Tree · Economy · Military</text>
    <text x="1065" y="610" text-anchor="middle" font-family="sans-serif" font-size="9" font-style="italic" fill="#4299e1">Issues commands like a human player</text></g>
  <g id="layer-3"><rect x="80" y="655" width="1240" height="80" rx="10" fill="#edf2f7" stroke="#a0aec0" stroke-width="1.5"/>
    <text x="100" y="672" text-anchor="start" font-family="sans-serif" font-size="10" font-weight="bold" fill="#4a5568">LAYER 3 — CORE STATE</text>
    <rect x="110" y="680" width="520" height="45" rx="8" fill="#e2e8f0" stroke="#a0aec0" stroke-width="1.5"/>
    <text x="370" y="697" text-anchor="middle" font-family="sans-serif" font-size="13" font-weight="bold" fill="#1a365d">GameState</text>
    <text x="370" y="712" text-anchor="middle" font-family="sans-serif" font-size="9" fill="#4a5568">Entity Store · Occupancy Maps · Spatial Index</text>
    <rect x="660" y="680" width="420" height="45" rx="8" fill="#e2e8f0" stroke="#a0aec0" stroke-width="1.5"/>
    <text x="870" y="697" text-anchor="middle" font-family="sans-serif" font-size="13" font-weight="bold" fill="#1a365d">EventBus</text>
    <text x="870" y="712" text-anchor="middle" font-family="sans-serif" font-size="9" fill="#4a5568">entity:created · building:placed · unit:died · ...</text>
    <rect x="1110" y="680" width="180" height="45" rx="8" fill="#e2e8f0" stroke="#a0aec0" stroke-width="1.5"/>
    <text x="1200" y="703" text-anchor="middle" font-family="sans-serif" font-size="13" font-weight="bold" fill="#1a365d">Settings</text></g>
  <g id="layer-2"><rect x="80" y="750" width="1240" height="70" rx="10" fill="#f7fafc" stroke="#cbd5e0" stroke-width="1.5"/>
    <text x="100" y="767" text-anchor="start" font-family="sans-serif" font-size="10" font-weight="bold" fill="#4a5568">LAYER 2 — INFRASTRUCTURE (never imports features)</text>
    <rect x="110" y="777" width="170" height="32" rx="5" fill="#edf2f7" stroke="#cbd5e0" stroke-width="1"/>
    <text x="195" y="798" text-anchor="middle" font-family="sans-serif" font-size="10" fill="#2d3748">Movement</text>
    <rect x="300" y="777" width="170" height="32" rx="5" fill="#edf2f7" stroke="#cbd5e0" stroke-width="1"/>
    <text x="385" y="798" text-anchor="middle" font-family="sans-serif" font-size="10" fill="#2d3748">Pathfinding</text>
    <rect x="490" y="777" width="170" height="32" rx="5" fill="#edf2f7" stroke="#cbd5e0" stroke-width="1"/>
    <text x="575" y="798" text-anchor="middle" font-family="sans-serif" font-size="10" fill="#2d3748">Placement</text>
    <rect x="680" y="777" width="170" height="32" rx="5" fill="#edf2f7" stroke="#cbd5e0" stroke-width="1"/>
    <text x="765" y="798" text-anchor="middle" font-family="sans-serif" font-size="10" fill="#2d3748">Spatial Search</text>
    <rect x="870" y="777" width="170" height="32" rx="5" fill="#edf2f7" stroke="#cbd5e0" stroke-width="1"/>
    <text x="955" y="798" text-anchor="middle" font-family="sans-serif" font-size="10" fill="#2d3748">Choreography</text>
    <rect x="1060" y="777" width="170" height="32" rx="5" fill="#edf2f7" stroke="#cbd5e0" stroke-width="1"/>
    <text x="1145" y="798" text-anchor="middle" font-family="sans-serif" font-size="10" fill="#2d3748">Coord System</text></g>
  <g id="layer-01"><rect x="80" y="835" width="1240" height="60" rx="10" fill="#f7fafc" stroke="#e2e8f0" stroke-width="1.5"/>
    <text x="100" y="852" text-anchor="start" font-family="sans-serif" font-size="10" font-weight="bold" fill="#718096">LAYERS 0–1 — PURE DATA &amp; ALGORITHMS</text>
    <rect x="110" y="862" width="130" height="22" rx="5" fill="#f7fafc" stroke="#e2e8f0" stroke-width="1"/>
    <text x="175" y="876" text-anchor="middle" font-family="sans-serif" font-size="10" fill="#4a5568">A* Algorithm</text>
    <rect x="253" y="862" width="130" height="22" rx="5" fill="#f7fafc" stroke="#e2e8f0" stroke-width="1"/>
    <text x="318" y="876" text-anchor="middle" font-family="sans-serif" font-size="10" fill="#4a5568">Seeded RNG</text>
    <rect x="396" y="862" width="130" height="22" rx="5" fill="#f7fafc" stroke="#e2e8f0" stroke-width="1"/>
    <text x="461" y="876" text-anchor="middle" font-family="sans-serif" font-size="10" fill="#4a5568">Building Types</text>
    <rect x="539" y="862" width="130" height="22" rx="5" fill="#f7fafc" stroke="#e2e8f0" stroke-width="1"/>
    <text x="604" y="876" text-anchor="middle" font-family="sans-serif" font-size="10" fill="#4a5568">Unit Types</text>
    <rect x="682" y="862" width="130" height="22" rx="5" fill="#f7fafc" stroke="#e2e8f0" stroke-width="1"/>
    <text x="747" y="876" text-anchor="middle" font-family="sans-serif" font-size="10" fill="#4a5568">Materials</text>
    <rect x="825" y="862" width="130" height="22" rx="5" fill="#f7fafc" stroke="#e2e8f0" stroke-width="1"/>
    <text x="890" y="876" text-anchor="middle" font-family="sans-serif" font-size="10" fill="#4a5568">Recipes</text>
    <rect x="968" y="862" width="130" height="22" rx="5" fill="#f7fafc" stroke="#e2e8f0" stroke-width="1"/>
    <text x="1033" y="876" text-anchor="middle" font-family="sans-serif" font-size="10" fill="#4a5568">Footprints</text>
    <rect x="1111" y="862" width="130" height="22" rx="5" fill="#f7fafc" stroke="#e2e8f0" stroke-width="1"/>
    <text x="1176" y="876" text-anchor="middle" font-family="sans-serif" font-size="10" fill="#4a5568">Behavior Tree</text></g>
  <g id="arrows"><line x1="400" y1="137" x2="290" y2="188" stroke="#1a365d" stroke-width="1.5" marker-end="url(#cmd)"/>
    <line x1="290" y1="240" x2="530" y2="293" stroke="#1a365d" stroke-width="1.5" marker-end="url(#cmd)"/>
    <text x="310" y="254" text-anchor="start" font-family="sans-serif" font-size="9" fill="#4a5568">execute(cmd)</text>
    <path d="M440,345 L93,406 L93,702 L110,702" fill="none" stroke="#1a365d" stroke-width="1.5" marker-end="url(#cmd)"/>
    <text x="90" y="515" text-anchor="end" font-family="sans-serif" font-size="9" fill="#4a5568">mutate state</text>
    <line x1="770" y1="680" x2="247.5" y2="625" stroke="#4299e1" stroke-width="1.5" stroke-dasharray="6 3" marker-end="url(#evt)"/>
    <line x1="800" y1="680" x2="535" y2="625" stroke="#4299e1" stroke-width="1.5" stroke-dasharray="6 3" marker-end="url(#evt)"/>
    <line x1="840" y1="680" x2="800" y2="625" stroke="#4299e1" stroke-width="1.5" stroke-dasharray="6 3" marker-end="url(#evt)"/>
    <line x1="870" y1="680" x2="1065" y2="625" stroke="#4299e1" stroke-width="1.5" stroke-dasharray="6 3" marker-end="url(#evt)"/>
    <text x="1310" y="648" text-anchor="end" font-family="sans-serif" font-size="9" font-weight="bold" fill="#4299e1">Events (pub/sub)</text>
    <line x1="668" y1="240" x2="668" y2="680" stroke="#2b6cb0" stroke-width="1.5" stroke-dasharray="4 4" marker-start="url(#qry)"/>
    <text x="676" y="254" text-anchor="start" font-family="sans-serif" font-size="9" fill="#2b6cb0">queries via RenderContext</text>
    <path d="M940,590 Q800,590 600,345" fill="none" stroke="#4299e1" stroke-width="1.5" stroke-dasharray="5 3" marker-end="url(#ai)"/>
    <text x="1198" y="593" text-anchor="start" font-family="sans-serif" font-size="9" fill="#4299e1">execute(cmd)</text>
    <path d="M1325,295 L1340,295 L1340,820 L1325,820" fill="none" stroke="#63b3ed" stroke-width="1.5"/>
    <line x1="1325" y1="505" x2="1200" y2="505" stroke="#63b3ed" stroke-width="1" stroke-dasharray="6 3" marker-end="url(#lp)"/>
    <line x1="1325" y1="702" x2="1295" y2="702" stroke="#63b3ed" stroke-width="1" stroke-dasharray="6 3" marker-end="url(#lp)"/>
    <line x1="1325" y1="793" x2="1240" y2="793" stroke="#63b3ed" stroke-width="1" stroke-dasharray="6 3" marker-end="url(#lp)"/>
    <text x="1348" y="557.5" text-anchor="middle" font-family="sans-serif" font-size="10" font-weight="bold" fill="#63b3ed" transform="rotate(90, 1348, 557.5)">GameLoop ticks all systems (30 Hz)</text></g>
  <g id="legend"><rect x="80" y="915" width="1240" height="55" rx="8" fill="#ffffff" stroke="#e2e8f0" stroke-width="1"/>
    <text x="100" y="931" text-anchor="start" font-family="sans-serif" font-size="11" font-weight="bold" fill="#1a365d">Legend</text>
    <line x1="100" y1="948" x2="140" y2="948" stroke="#1a365d" stroke-width="1.5" marker-end="url(#cmd)"/>
    <text x="150" y="952" text-anchor="start" font-family="sans-serif" font-size="10" fill="#2d3748">Direct call</text>
    <line x1="290" y1="948" x2="330" y2="948" stroke="#4299e1" stroke-width="1.5" stroke-dasharray="6 3" marker-end="url(#evt)"/>
    <text x="340" y="952" text-anchor="start" font-family="sans-serif" font-size="10" fill="#2d3748">Event reaction</text>
    <line x1="500" y1="948" x2="540" y2="948" stroke="#2b6cb0" stroke-width="1.5" stroke-dasharray="6 3" marker-end="url(#qry)"/>
    <text x="550" y="952" text-anchor="start" font-family="sans-serif" font-size="10" fill="#2d3748">Read-only query</text>
    <rect x="720" y="941" width="12" height="12" rx="2" fill="#bee3f8" stroke="#63b3ed" stroke-width="1"/>
    <text x="738" y="952" text-anchor="start" font-family="sans-serif" font-size="9" fill="#2d3748">Economy</text>
    <rect x="800" y="941" width="12" height="12" rx="2" fill="#90cdf4" stroke="#63b3ed" stroke-width="1"/>
    <text x="818" y="952" text-anchor="start" font-family="sans-serif" font-size="9" fill="#2d3748">Settlers</text>
    <rect x="880" y="941" width="12" height="12" rx="2" fill="#63b3ed" stroke="#4299e1" stroke-width="1"/>
    <text x="898" y="952" text-anchor="start" font-family="sans-serif" font-size="9" fill="#2d3748">World</text>
    <rect x="950" y="941" width="12" height="12" rx="2" fill="#4299e1" stroke="#2b6cb0" stroke-width="1"/>
    <text x="968" y="952" text-anchor="start" font-family="sans-serif" font-size="9" fill="#2d3748">Military</text>
    <rect x="1030" y="941" width="12" height="12" rx="2" fill="#2a4365" stroke="#63b3ed" stroke-width="1"/>
    <text x="1048" y="952" text-anchor="start" font-family="sans-serif" font-size="9" fill="#2d3748">AI</text>
    <text x="100" y="965" text-anchor="start" font-family="sans-serif" font-size="9" fill="#a0aec0">Infra never imports features. Features communicate via EventBus. Deterministic: seeded RNG, fixed-point math.</text></g>
</svg>